<svg width="20" height="20" viewBox="0 0 20 20" fill="none" xmlns="http://www.w3.org/2000/svg">
<path d="M10 13.3333C10.442 13.3333 10.8659 13.5089 11.1785 13.8215C11.4911 14.134 11.6667 14.558 11.6667 15C11.6667 15.442 11.4911 15.8659 11.1785 16.1785C10.8659 16.4911 10.442 16.6667 10 16.6667C9.55797 16.6667 9.13405 16.4911 8.82149 16.1785C8.50893 15.8659 8.33333 15.442 8.33333 15C8.33333 14.558 8.50893 14.134 8.82149 13.8215C9.13405 13.5089 9.55797 13.3333 10 13.3333ZM10 8.33333C10.442 8.33333 10.8659 8.50892 11.1785 8.82148C11.4911 9.13404 11.6667 9.55797 11.6667 9.99999C11.6667 10.442 11.4911 10.8659 11.1785 11.1785C10.8659 11.4911 10.442 11.6667 10 11.6667C9.55797 11.6667 9.13405 11.4911 8.82149 11.1785C8.50893 10.8659 8.33333 10.442 8.33333 9.99999C8.33333 9.55797 8.50893 9.13404 8.82149 8.82148C9.13405 8.50892 9.55797 8.33333 10 8.33333V8.33333ZM10 3.33333C10.442 3.33333 10.8659 3.50892 11.1785 3.82148C11.4911 4.13404 11.6667 4.55797 11.6667 4.99999C11.6667 5.44202 11.4911 5.86595 11.1785 6.17851C10.8659 6.49107 10.442 6.66666 10 6.66666C9.55797 6.66666 9.13405 6.49107 8.82149 6.17851C8.50893 5.86595 8.33333 5.44202 8.33333 4.99999C8.33333 4.55797 8.50893 4.13404 8.82149 3.82148C9.13405 3.50892 9.55797 3.33333 10 3.33333Z" fill="#A6A6A6"/>
</svg>
