<svg width="32" height="20" viewBox="0 0 32 20" fill="none" xmlns="http://www.w3.org/2000/svg">
<path d="M26.0526 20H13.4211V17.8947H26.0526V20ZM5 20V17.8947H12.3684V20H5ZM21.8421 15.7895V7.36842H26.0526V15.7895H21.8421ZM21.8421 0H26.0526V6.31579H21.8421V0ZM5 15.7895V0H19.7368V15.7895H5ZM12.3684 12.1684C13.2059 12.1684 14.0092 11.8357 14.6014 11.2435C15.1936 10.6513 15.5263 9.84805 15.5263 9.01053C15.5263 6.90526 12.3684 3.35789 12.3684 3.35789C12.3684 3.35789 9.21053 6.90526 9.21053 9.01053C9.21053 9.84805 9.54323 10.6513 10.1355 11.2435C10.7277 11.8357 11.5309 12.1684 12.3684 12.1684Z" fill="white"/>
</svg>
