<svg width="32" height="20" viewBox="0 0 32 20" fill="none" xmlns="http://www.w3.org/2000/svg">
<path d="M13.7188 5.14286C11.6716 5.14286 9.70832 5.92551 8.26077 7.31864C6.81322 8.71176 6 10.6012 6 12.5714C6 14.5416 6.81322 16.4311 8.26077 17.8242C9.70832 19.2173 11.6716 20 13.7188 20H17.875V17.7143H13.7188C10.75 17.7143 8.375 15.4286 8.375 12.5714C8.375 9.71429 10.75 7.42857 13.7188 7.42857H20.4519L16.7944 10.96L18.4688 12.5714L25 6.28571L18.4688 0L16.7825 1.61143L20.4519 5.14286H13.7188ZM22.625 17.7143H20.25V20H22.625V17.7143Z" fill="white"/>
</svg>
