<svg width="32" height="20" viewBox="0 0 32 20" fill="none" xmlns="http://www.w3.org/2000/svg">
<path d="M17.2812 5.14286C19.3284 5.14286 21.2917 5.92551 22.7392 7.31864C24.1868 8.71176 25 10.6012 25 12.5714C25 14.5416 24.1868 16.4311 22.7392 17.8242C21.2917 19.2173 19.3284 20 17.2812 20H13.125V17.7143H17.2812C20.25 17.7143 22.625 15.4286 22.625 12.5714C22.625 9.71429 20.25 7.42857 17.2812 7.42857H10.5481L14.2056 10.96L12.5312 12.5714L6 6.28571L12.5312 0L14.2175 1.61143L10.5481 5.14286H17.2812ZM8.375 17.7143H10.75V20H8.375V17.7143Z" fill="white"/>
</svg>
